# xmcd CD database file
#
# Track frame offsets:
#	183
#	10175
#	22605
#	32940
#	43080
#	54188
#	65950
#	77365
#	89140
#	99035
#	110448
#	120578
#	131385
#	142385
#
# Disc length: 2041 seconds
#
# Revision: 2
# Processed by: cddbd v1.4b41PL1 Copyright (c) Steve Scherf et al.
# Submitted via: Feurio! 1.52 - http://www.feurio.com
#
DISCID=b307f70e
DTITLE=Conway Twitty - It's Only Make Believe
DYEAR=1900
DGENRE=
TTITLE0=It's Only Make Believe
TTITLE1=Danny Boy
TTITLE2=Halfway To Heaven
TTITLE3=Lonely Blue Boy
TTITLE4=Havenly
TTITLE5=You Made Me What I Am Today
TTITLE6=I'll Get Over Losing You
TTITLE7=Is A Blue Bird Blue
TTITLE8=Where  I Stand
TTITLE9=Angel Wing
TTITLE10=I'll Try
TTITLE11=The Hurt In My Heart
TTITLE12=Have I Been Away Too Long
TTITLE13=Mona Lisa
EXTD=
EXTT0=
EXTT1=
EXTT2=
EXTT3=
EXTT4=
EXTT5=
EXTT6=
EXTT7=
EXTT8=
EXTT9=
EXTT10=
EXTT11=
EXTT12=
EXTT13=
PLAYORDER=
